<svg xmlns="http://www.w3.org/2000/svg" style="display:none">
  <!-- icono: teléfono -->
  <symbol id="icon-phone" viewBox="0 0 24 24">
    <g fill="none" stroke="currentColor" stroke-width="2" stroke-linecap="round" stroke-linejoin="round">
      <path stroke="none" d="M0 0h24v24H0z" fill="none"/>
      <path d="M5 4h4l2 5l-2.5 1.5a11 11 0 0 0 5 5l1.5 -2.5l5 2v4a2 2 0 0 1 -2 2a16 16 0 0 1 -15 -15a2 2 0 0 1 2 -2"/>
    </g>
  </symbol>

  <!-- icono: correo / mail -->
  <symbol id="icon-mail" viewBox="0 0 24 24">
    <g fill="none" stroke="currentColor" stroke-width="2" stroke-linecap="round" stroke-linejoin="round">
      <path stroke="none" d="M0 0h24v24H0z" fill="none"/>
      <path d="M3 7a2 2 0 0 1 2 -2h14a2 2 0 0 1 2 2v10a2 2 0 0 1 -2 2h-14a2 2 0 0 1 -2 -2v-10z"/>
      <path d="M3 7l9 6l9 -6"/>
    </g>
  </symbol>

  <!-- icono: WhatsApp -->
<symbol id="icon-whatsapp" viewBox="0 0 24 24">
  <g fill="none" stroke="currentColor" stroke-width="2" stroke-linecap="round" stroke-linejoin="round">
    <path stroke="none" d="M0 0h24v24H0z" fill="none"/>
    <path d="M3 21l1.65 -3.8a9 9 0 1 1 3.4 2.9l-5.05 .9" />
    <path d="M9 10a.5 .5 0 0 0 1 0v-1a.5 .5 0 0 0 -1 0v1a5 5 0 0 0 5 5h1a.5 .5 0 0 0 0 -1h-1a.5 .5 0 0 0 0 1" />
  </g>
</symbol>

  <!-- icono: Facebook -->
  <symbol id="icon-facebook" viewBox="0 0 24 24">
    <g fill="none" stroke="currentColor" stroke-width="2" stroke-linecap="round" stroke-linejoin="round">
      <path stroke="none" d="M0 0h24v24H0z" fill="none"/>
      <path d="M7 10v4h3v7h4v-7h3l1 -4h-4v-2a1 1 0 0 1 1 -1h3v-4h-3a5 5 0 0 0 -5 5v2h-3"/>
    </g>
  </symbol>

  <!-- icono: Instagram -->
  <symbol id="icon-instagram" viewBox="0 0 24 24">
    <g fill="none" stroke="currentColor" stroke-width="2" stroke-linecap="round" stroke-linejoin="round">
      <path stroke="none" d="M0 0h24v24H0z" fill="none"/>
      <path d="M4 8a4 4 0 0 1 4 -4h8a4 4 0 0 1 4 4v8a4 4 0 0 1 -4 4h-8a4 4 0 0 1 -4 -4z"/>
      <path d="M9 12a3 3 0 1 0 6 0a3 3 0 0 0 -6 0"/>
      <path d="M16.5 7.5v.01"/>
    </g>
  </symbol>

  <!-- icono: X (antes Twitter) -->
  <symbol id="icon-x" viewBox="0 0 24 24">
    <g fill="none" stroke="currentColor" stroke-width="2" stroke-linecap="round" stroke-linejoin="round">
      <path stroke="none" d="M0 0h24v24H0z" fill="none"/>
      <path d="M4 4l11.733 16h4.267l-11.733 -16z"/>
      <path d="M4 20l6.768 -6.768m2.46 -2.46l6.772 -6.772"/>
    </g>
  </symbol>

  <!-- icono: TikTok -->
  <symbol id="icon-tiktok" viewBox="0 0 24 24">
    <g fill="none" stroke="currentColor" stroke-width="2" stroke-linecap="round" stroke-linejoin="round">
      <path stroke="none" d="M0 0h24v24H0z" fill="none"/>
      <path d="M21 7.917v4.034a9.948 9.948 0 0 1 -5 -1.951v4.5a6.5 6.5 0 1 1 -8 -6.326v4.326a2.5 2.5 0 1 0 4 2v-11.5h4.083a6.005 6.005 0 0 0 4.917 4.917z"/>
    </g>
  </symbol>

  <!-- icono: YouTube -->
  <symbol id="icon-youtube" viewBox="0 0 24 24">
    <g fill="none" stroke="currentColor" stroke-width="2" stroke-linecap="round" stroke-linejoin="round">
      <path stroke="none" d="M0 0h24v24H0z" fill="none"/>
      <path d="M2 8a4 4 0 0 1 4 -4h12a4 4 0 0 1 4 4v8a4 4 0 0 1 -4 4h-12a4 4 0 0 1 -4 -4v-8z"/>
      <path d="M10 9l5 3l-5 3z"/>
    </g>
  </symbol>

  <!-- icono: Twitch -->
  <symbol id="icon-twitch" viewBox="0 0 24 24">
    <g fill="none" stroke="currentColor" stroke-width="2" stroke-linecap="round" stroke-linejoin="round">
      <path stroke="none" d="M0 0h24v24H0z" fill="none"/>
      <path d="M4 5v11a1 1 0 0 0 1 1h2v4l4 -4h5.584c.266 0 .52 -.105 .707 -.293l2.415 -2.414c.187 -.188 .293 -.442 .293 -.708v-8.585a1 1 0 0 0 -1 -1h-14a1 1 0 0 0 -1 1z"/>
      <path d="M16 8l0 4"/>
      <path d="M12 8l0 4"/>
    </g>
  </symbol>

  <!-- icono: Kick -->
  <symbol id="icon-kick" viewBox="0 0 24 24">
    <g fill="none" stroke="currentColor" stroke-width="2" stroke-linecap="round" stroke-linejoin="round">
      <path stroke="none" d="M0 0h24v24H0z" fill="none"/>
      <path d="M4 4h5v4h3v-2h2v-2h6v4h-2v2h-2v4h2v2h2v4h-6v-2h-2v-2h-3v4h-5z"/>
    </g>
  </symbol>

  <!-- icono: Spotify -->
  <symbol id="icon-spotify" viewBox="0 0 24 24">
    <g fill="none" stroke="currentColor" stroke-width="2" stroke-linecap="round" stroke-linejoin="round">
      <path stroke="none" d="M0 0h24v24H0z" fill="none"/>
      <path d="M12 12m-9 0a9 9 0 1 0 18 0a9 9 0 1 0 -18 0"/>
      <path d="M8 11.973c2.5 -1.473 5.5 -.973 7.5 .527"/>
      <path d="M9 15c1.5 -1 4 -1 5 .5"/>
      <path d="M7 9c2 -1 6 -2 10 .5"/>
    </g>
  </symbol>

  <!-- icono: LinkedIn -->
  <symbol id="icon-linkedin" viewBox="0 0 24 24">
    <g fill="none" stroke="currentColor" stroke-width="2" stroke-linecap="round" stroke-linejoin="round">
      <path stroke="none" d="M0 0h24v24H0z" fill="none"/>
      <path d="M8 11v5"/>
      <path d="M8 8v.01"/>
      <path d="M12 16v-5"/>
      <path d="M16 16v-3a2 2 0 1 0 -4 0"/>
      <path d="M3 7a4 4 0 0 1 4 -4h10a4 4 0 0 1 4 4v10a4 4 0 0 1 -4 4h-10a4 4 0 0 1 -4 -4z"/>
    </g>
  </symbol>

  <!-- icono: GitHub -->
  <symbol id="icon-github" viewBox="0 0 24 24">
    <g fill="none" stroke="currentColor" stroke-width="2" stroke-linecap="round" stroke-linejoin="round">
      <path stroke="none" d="M0 0h24v24H0z" fill="none"/>
      <path d="M9 19c-4.3 1.4 -4.3 -2.5 -6 -3m12 5v-3.5c0 -1 .1 -1.4 -.5 -2c2.8 -.3 5.5 -1.4 5.5 -6a4.6 4.6 0 0 0 -1.3 -3.2a4.2 4.2 0 0 0 -.1 -3.2s-1.1 -.3 -3.5 1.3a12.3 12.3 0 0 0 -6.2 0c-2.4 -1.6 -3.5 -1.3 -3.5 -1.3a4.2 4.2 0 0 0 -.1 3.2a4.6 4.6 0 0 0 -1.3 3.2c0 4.6 2.7 5.7 5.5 6c-.6 .6 -.6 1.2 -.5 2v3.5"/>
    </g>
  </symbol>

  <!-- icono: menú (tres líneas) -->
  <symbol id="icon-menu" viewBox="0 0 24 24">
    <g fill="none" stroke="currentColor" stroke-width="2" stroke-linecap="round" stroke-linejoin="round">
      <path stroke="none" d="M0 0h24v24H0z" fill="none"/>
      <path d="M4 6l16 0"/>
      <path d="M4 12l16 0"/>
      <path d="M4 18l16 0"/>
    </g>
  </symbol>

  <!-- icono: mapa (map-pin) -->
  <symbol id="icon-map-pin" viewBox="0 0 24 24">
    <g fill="none" stroke="currentColor" stroke-width="2" stroke-linecap="round" stroke-linejoin="round">
      <path stroke="none" d="M0 0h24v24H0z" fill="none"/>
      <path d="M9 11a3 3 0 1 0 6 0a3 3 0 0 0 -6 0"/>
      <path d="M17.657 16.657l-4.243 4.243a2 2 0 0 1 -2.827 0l-4.244 -4.243a8 8 0 1 1 11.314 0z"/>
    </g>
  </symbol>

  <symbol id="icon-shopping-cart" viewBox="0 0 24 24">
  <g fill="none" stroke="currentColor" stroke-width="2" stroke-linecap="round" stroke-linejoin="round">
    <path stroke="none" d="M0 0h24v24H0z" fill="none"/>
    <path d="M6 19m-2 0a2 2 0 1 0 4 0a2 2 0 1 0 -4 0" />
    <path d="M17 19m-2 0a2 2 0 1 0 4 0a2 2 0 1 0 -4 0" />
    <path d="M17 17h-11v-14h-2" />
    <path d="M6 5l14 1l-1 7h-13" />
  </g>
</symbol>
</svg>
